<svg xmlns="http://www.w3.org/2000/svg" viewBox="0 0 884 380" style="background:#fafaf7;font-family:'Inter',ui-sans-serif,system-ui;width:100%;height:auto;display:block;">
<defs><clipPath id="ts-clip"><rect x="92" y="32" width="644" height="292"/></clipPath></defs>
<text x="414.0" y="20" text-anchor="middle" font-size="13" font-weight="700" fill="#1a1612">Region cumulative ΔStorage (27-polygon network), shaded by hydrologic condition</text>
<rect x="127.8" y="32" width="23.9" height="292" fill="#c75a35" fill-opacity="0.26"/>
<rect x="151.6" y="32" width="23.9" height="292" fill="#c75a35" fill-opacity="0.26"/>
<rect x="199.3" y="32" width="23.9" height="292" fill="#d99a4f" fill-opacity="0.2"/>
<rect x="270.9" y="32" width="23.9" height="292" fill="#c75a35" fill-opacity="0.26"/>
<rect x="294.7" y="32" width="23.9" height="292" fill="#a32d2d" fill-opacity="0.32"/>
<rect x="318.6" y="32" width="23.9" height="292" fill="#c75a35" fill-opacity="0.26"/>
<rect x="342.4" y="32" width="23.9" height="292" fill="#d99a4f" fill-opacity="0.2"/>
<rect x="390.1" y="32" width="23.9" height="292" fill="#d99a4f" fill-opacity="0.2"/>
<rect x="414.0" y="32" width="23.9" height="292" fill="#c75a35" fill-opacity="0.26"/>
<rect x="437.9" y="32" width="23.9" height="292" fill="#a32d2d" fill-opacity="0.32"/>
<rect x="461.7" y="32" width="23.9" height="292" fill="#a32d2d" fill-opacity="0.32"/>
<rect x="485.6" y="32" width="23.9" height="292" fill="#d99a4f" fill-opacity="0.2"/>
<rect x="533.3" y="32" width="23.9" height="292" fill="#d99a4f" fill-opacity="0.2"/>
<rect x="581.0" y="32" width="23.9" height="292" fill="#c75a35" fill-opacity="0.26"/>
<rect x="604.8" y="32" width="23.9" height="292" fill="#a32d2d" fill-opacity="0.32"/>
<rect x="628.7" y="32" width="23.9" height="292" fill="#a32d2d" fill-opacity="0.32"/>
<line x1="92" y1="324.0" x2="736" y2="324.0" stroke="#e7e1cf" stroke-width="0.5"/>
<text x="84" y="327.0" text-anchor="end" font-size="10" fill="#5b5547">-750,000</text>
<line x1="92" y1="306.8" x2="736" y2="306.8" stroke="#e7e1cf" stroke-width="0.5"/>
<text x="84" y="309.8" text-anchor="end" font-size="10" fill="#5b5547">-700,000</text>
<line x1="92" y1="289.6" x2="736" y2="289.6" stroke="#e7e1cf" stroke-width="0.5"/>
<text x="84" y="292.6" text-anchor="end" font-size="10" fill="#5b5547">-650,000</text>
<line x1="92" y1="272.5" x2="736" y2="272.5" stroke="#e7e1cf" stroke-width="0.5"/>
<text x="84" y="275.5" text-anchor="end" font-size="10" fill="#5b5547">-600,000</text>
<line x1="92" y1="255.3" x2="736" y2="255.3" stroke="#e7e1cf" stroke-width="0.5"/>
<text x="84" y="258.3" text-anchor="end" font-size="10" fill="#5b5547">-550,000</text>
<line x1="92" y1="238.1" x2="736" y2="238.1" stroke="#e7e1cf" stroke-width="0.5"/>
<text x="84" y="241.1" text-anchor="end" font-size="10" fill="#5b5547">-500,000</text>
<line x1="92" y1="220.9" x2="736" y2="220.9" stroke="#e7e1cf" stroke-width="0.5"/>
<text x="84" y="223.9" text-anchor="end" font-size="10" fill="#5b5547">-450,000</text>
<line x1="92" y1="203.8" x2="736" y2="203.8" stroke="#e7e1cf" stroke-width="0.5"/>
<text x="84" y="206.8" text-anchor="end" font-size="10" fill="#5b5547">-400,000</text>
<line x1="92" y1="186.6" x2="736" y2="186.6" stroke="#e7e1cf" stroke-width="0.5"/>
<text x="84" y="189.6" text-anchor="end" font-size="10" fill="#5b5547">-350,000</text>
<line x1="92" y1="169.4" x2="736" y2="169.4" stroke="#e7e1cf" stroke-width="0.5"/>
<text x="84" y="172.4" text-anchor="end" font-size="10" fill="#5b5547">-300,000</text>
<line x1="92" y1="152.2" x2="736" y2="152.2" stroke="#e7e1cf" stroke-width="0.5"/>
<text x="84" y="155.2" text-anchor="end" font-size="10" fill="#5b5547">-250,000</text>
<line x1="92" y1="135.1" x2="736" y2="135.1" stroke="#e7e1cf" stroke-width="0.5"/>
<text x="84" y="138.1" text-anchor="end" font-size="10" fill="#5b5547">-200,000</text>
<line x1="92" y1="117.9" x2="736" y2="117.9" stroke="#e7e1cf" stroke-width="0.5"/>
<text x="84" y="120.9" text-anchor="end" font-size="10" fill="#5b5547">-150,000</text>
<line x1="92" y1="100.7" x2="736" y2="100.7" stroke="#e7e1cf" stroke-width="0.5"/>
<text x="84" y="103.7" text-anchor="end" font-size="10" fill="#5b5547">-100,000</text>
<line x1="92" y1="83.5" x2="736" y2="83.5" stroke="#e7e1cf" stroke-width="0.5"/>
<text x="84" y="86.5" text-anchor="end" font-size="10" fill="#5b5547">-50,000</text>
<line x1="92" y1="66.4" x2="736" y2="66.4" stroke="#e7e1cf" stroke-width="0.5"/>
<text x="84" y="69.4" text-anchor="end" font-size="10" fill="#5b5547">0</text>
<line x1="92" y1="49.2" x2="736" y2="49.2" stroke="#e7e1cf" stroke-width="0.5"/>
<text x="84" y="52.2" text-anchor="end" font-size="10" fill="#5b5547">50,000</text>
<line x1="92" y1="32.0" x2="736" y2="32.0" stroke="#e7e1cf" stroke-width="0.5"/>
<text x="84" y="35.0" text-anchor="end" font-size="10" fill="#5b5547">100,000</text>
<line x1="92" y1="66.4" x2="736" y2="66.4" stroke="#5b5547" stroke-width="0.8"/>
<line x1="115.9" y1="324" x2="115.9" y2="328" stroke="#5b5547" stroke-width="0.5"/>
<text x="115.9" y="342" text-anchor="middle" font-size="10" fill="#5b5547">2000</text>
<line x1="235.1" y1="324" x2="235.1" y2="328" stroke="#5b5547" stroke-width="0.5"/>
<text x="235.1" y="342" text-anchor="middle" font-size="10" fill="#5b5547">2005</text>
<line x1="354.4" y1="324" x2="354.4" y2="328" stroke="#5b5547" stroke-width="0.5"/>
<text x="354.4" y="342" text-anchor="middle" font-size="10" fill="#5b5547">2010</text>
<line x1="473.6" y1="324" x2="473.6" y2="328" stroke="#5b5547" stroke-width="0.5"/>
<text x="473.6" y="342" text-anchor="middle" font-size="10" fill="#5b5547">2015</text>
<line x1="592.9" y1="324" x2="592.9" y2="328" stroke="#5b5547" stroke-width="0.5"/>
<text x="592.9" y="342" text-anchor="middle" font-size="10" fill="#5b5547">2020</text>
<line x1="712.1" y1="324" x2="712.1" y2="328" stroke="#5b5547" stroke-width="0.5"/>
<text x="712.1" y="342" text-anchor="middle" font-size="10" fill="#5b5547">2025</text>
<text x="22" y="178.0" transform="rotate(-90,22,178.0)" text-anchor="middle" font-size="11" fill="#5b5547" font-weight="600">Cumulative storage change (AF)</text>
<polyline points="92.0,66.4 115.9,66.4 139.7,65.1 163.6,67.6 187.4,59.5 211.3,50.8 235.1,42.9 259.0,40.0 282.8,66.9 306.7,62.5 330.5,90.8 354.4,100.6 378.2,108.4 402.1,128.5 425.9,146.5 449.8,181.2 473.6,204.7 497.5,217.3 521.3,178.9 545.2,207.5 569.0,179.5 592.9,216.9 616.7,271.5 640.6,308.4 664.4,265.0 688.3,231.0 712.1,221.1 736.0,231.7" fill="none" stroke="#1f3a5f" stroke-width="2.4" clip-path="url(#ts-clip)"/>
<circle cx="736.0" cy="231.7" r="3.2" fill="#1f3a5f"/>
<polyline points="92.0,66.4 115.9,51.2 139.7,71.6 163.6,92.0 187.4,76.9 211.3,90.2 235.1,75.0 259.0,49.1 282.8,69.5 306.7,102.6 330.5,123.0 354.4,136.3 378.2,110.3 402.1,123.6 425.9,144.0 449.8,177.1 473.6,210.2 497.5,223.6 521.3,197.6 545.2,210.9 569.0,185.0 592.9,205.3 616.7,238.5 640.6,271.6 664.4,245.6 688.3,230.5 712.1,215.4 736.0,225.9" fill="none" stroke="#7c4a86" stroke-width="2.0" stroke-dasharray="6,4" clip-path="url(#ts-clip)"/>
<circle cx="736.0" cy="225.9" r="3.0" fill="#7c4a86"/>
<line x1="736.0" y1="231.7" x2="743.0" y2="233.8" stroke="#1f3a5f" stroke-width="0.7" opacity="0.6"/>
<text x="746.0" y="236.8" text-anchor="start" font-size="11" font-weight="700" fill="#1f3a5f">-481,345 (obs.)</text>
<line x1="736.0" y1="225.9" x2="743.0" y2="217.8" stroke="#7c4a86" stroke-width="0.7" opacity="0.6"/>
<text x="746.0" y="220.8" text-anchor="start" font-size="11" font-weight="700" fill="#7c4a86">-464,564 (norm.)</text>
<g transform="translate(100,208)">
<rect x="-8" y="-22" width="320" height="132" fill="#fafaf7" fill-opacity="0.92" stroke="#cfc9b8" stroke-width="0.5" rx="2"/>
<line x1="0" y1="-10" x2="22" y2="-10" stroke="#1f3a5f" stroke-width="2.4"/>
<text x="28" y="-7" font-size="11" fill="#1a1612"><tspan font-weight="700">Observed</tspan> (years each polygon measured)</text>
<line x1="0" y1="7" x2="22" y2="7" stroke="#7c4a86" stroke-width="2.0" stroke-dasharray="6,4"/>
<text x="28" y="11" font-size="11" fill="#1a1612"><tspan font-weight="700">Normalized</tspan> (year-type-weighted backcast)</text>
<rect x="0" y="20" width="22" height="10" fill="#a32d2d" fill-opacity="0.32"/>
<text x="28" y="29" font-size="11" fill="#1a1612">Critical</text>
<rect x="0" y="36" width="22" height="10" fill="#c75a35" fill-opacity="0.26"/>
<text x="28" y="45" font-size="11" fill="#1a1612">Dry</text>
<rect x="0" y="52" width="22" height="10" fill="#d99a4f" fill-opacity="0.2"/>
<text x="28" y="61" font-size="11" fill="#1a1612">Below Normal</text>
<rect x="0" y="68" width="22" height="10" fill="#fafaf7" stroke="#cfc9b8" stroke-width="0.5"/>
<text x="28" y="77" font-size="11" fill="#1a1612">Wet / Above N.</text>
</g>
</svg>